<?xml version="1.0" encoding="utf-8"?>
<!-- Generator: Adobe Illustrator 22.1.0, SVG Export Plug-In . SVG Version: 6.00 Build 0)  -->
<svg version="1.1" xmlns="http://www.w3.org/2000/svg" xmlns:xlink="http://www.w3.org/1999/xlink" x="0px" y="0px"
	 viewBox="0 0 50 50" style="enable-background:new 0 0 50 50;" xml:space="preserve">
<style type="text/css">
	.st0{fill:#30656E;}
</style>
<g id="Capa_1">
	<rect x="26" y="21" class="st0" width="7" height="7"/>
	<rect x="35" y="21" class="st0" width="7" height="7"/>
	<rect x="26" y="29" class="st0" width="7" height="7"/>
	<rect x="35" y="29" class="st0" width="7" height="7"/>
	<rect x="26" y="37" class="st0" width="7" height="7"/>
	<rect x="17" y="29" class="st0" width="7" height="7"/>
	<rect x="17" y="37" class="st0" width="7" height="7"/>
	<rect x="8" y="29" class="st0" width="7" height="7"/>
	<rect x="8" y="37" class="st0" width="7" height="7"/>
	<rect x="35" y="37" class="st0" width="7" height="7"/>
	<rect y="19" class="st0" width="4" height="11"/>
	<rect x="46" y="19" class="st0" width="4" height="11"/>
	<rect x="37.5" y="42.5" transform="matrix(-1.836970e-16 1 -1 -1.836970e-16 87.5 8.5)" class="st0" width="4" height="11"/>
</g>
<g id="Capa_2">
	<path class="st0" d="M48,5h-6v5c0,2.2-1.8,4-4,4s-4-1.8-4-4V5H16v5c0,2.2-1.8,4-4,4s-4-1.8-4-4V5H2C0.9,5,0,5.9,0,7v41
		c0,1.1,0.9,2,2,2h46c1.1,0,2-0.9,2-2V7C50,5.9,49.1,5,48,5z M46,46H4V18h42V46z"/>
	<path class="st0" d="M12,12L12,12c-1.1,0-2-0.9-2-2V2c0-1.1,0.9-2,2-2h0c1.1,0,2,0.9,2,2v8C14,11.1,13.1,12,12,12z"/>
	<path class="st0" d="M38,12L38,12c-1.1,0-2-0.9-2-2V2c0-1.1,0.9-2,2-2h0c1.1,0,2,0.9,2,2v8C40,11.1,39.1,12,38,12z"/>
</g>
</svg>
