<?xml version="1.0" encoding="utf-8"?>
<!-- Generator: Adobe Illustrator 22.1.0, SVG Export Plug-In . SVG Version: 6.00 Build 0)  -->
<svg version="1.1" id="Capa_3" xmlns="http://www.w3.org/2000/svg" xmlns:xlink="http://www.w3.org/1999/xlink" x="0px" y="0px"
	 viewBox="0 0 48 48" style="enable-background:new 0 0 48 48;" xml:space="preserve">
<path d="M35.7,17.2c-0.2,0.1-0.5,0.2-0.7,0.3c0.3-0.5,0.6-1,0.8-1.5l0.4-1.4L35,15.3c-0.8,0.5-1.7,0.8-2.6,1c-1-0.9-2.3-1.5-3.7-1.5
	c-2.9,0-5.3,2.4-5.3,5.3c0,0.2,0,0.3,0,0.5c-3.4-0.4-6.7-2.1-8.8-4.8L14,15.4L13.6,16c-0.5,0.8-0.7,1.7-0.7,2.7c0,1.1,0.3,2.1,0.9,3
	c0,0-0.1,0-0.1-0.1l-0.8-0.4v0.9c0,1.7,0.8,3.2,2.1,4.2l-0.6-0.1l0.3,0.8c0.5,1.7,1.9,3,3.6,3.5c-1.4,0.8-2.9,1.2-4.5,1.2
	c-0.4,0-0.8,0-1.1-0.1l-2.3-0.3l2,1.3c2.3,1.5,4.9,2.2,7.7,2.2c5.3,0,8.7-2.5,10.5-4.6c2.3-2.6,3.7-6.1,3.7-9.6c0-0.1,0-0.2,0-0.4
	c0.9-0.7,1.7-1.5,2.3-2.4l1.1-1.5L35.7,17.2z M32.9,20.2c0,0.2,0,0.4,0,0.6v0c0,8.2-6.7,13.1-13.1,13.1c-1.8,0-3.5-0.4-5.2-1.1
	c1.9-0.2,3.7-0.9,5.3-2.1l1.2-0.9l-1.5,0c-1.5,0-2.9-0.9-3.6-2.2c0.5,0,1-0.1,1.4-0.2l2.3-0.6l-2.3-0.5c-1.7-0.3-3-1.7-3.3-3.4
	c0.5,0.2,1,0.3,1.5,0.3l1.9,0.1l-1.6-1.1c-1.2-0.8-1.9-2.1-1.9-3.5c0-0.5,0.1-1,0.2-1.4c2.5,2.7,6,4.4,9.7,4.6l0.7,0l-0.1-0.7
	c-0.1-0.3-0.1-0.7-0.1-1c0-2.3,1.9-4.3,4.3-4.3c1.2,0,2.3,0.5,3.1,1.3l0.2,0.2l0.3-0.1c0.6-0.1,1.1-0.3,1.7-0.5
	c-0.3,0.4-0.7,0.7-1.1,1l-2.1,1.3l2.5-0.3c0.4,0,0.7-0.1,1.1-0.2c-0.3,0.3-0.7,0.7-1.1,0.9l-0.2,0.2L32.9,20.2z"/>
</svg>
