<?xml version="1.0" encoding="utf-8"?>
<!-- Generator: Adobe Illustrator 22.1.0, SVG Export Plug-In . SVG Version: 6.00 Build 0)  -->
<svg version="1.1" id="Capa_1" xmlns="http://www.w3.org/2000/svg" xmlns:xlink="http://www.w3.org/1999/xlink" x="0px" y="0px"
	 viewBox="0 0 48 48" style="enable-background:new 0 0 48 48;" xml:space="preserve">
<style type="text/css">
	.st0{fill:#453F3F;}
	.st1{fill:none;}
</style>
<g>
	<path class="st0" d="M30.2,10.3H17.9c-4,0-7.3,3.3-7.3,7.3v12.3c0,4,3.3,7.3,7.3,7.3h12.3c4,0,7.3-3.3,7.3-7.3V17.6
		C37.5,13.6,34.3,10.3,30.2,10.3 M35.9,29.9c0,3.1-2.6,5.7-5.7,5.7H17.9c-3.1,0-5.7-2.6-5.7-5.7V17.6c0-3.1,2.6-5.7,5.7-5.7h12.3
		c3.1,0,5.7,2.6,5.7,5.7V29.9z"/>
	<path class="st0" d="M24.1,16.4c-4,0-7.3,3.3-7.3,7.3s3.3,7.3,7.3,7.3c4.1,0,7.3-3.3,7.3-7.3S28.1,16.4,24.1,16.4 M24.1,29.5
		c-3.2,0-5.8-2.6-5.8-5.8s2.6-5.8,5.8-5.8c3.2,0,5.8,2.6,5.8,5.8S27.3,29.5,24.1,29.5"/>
	<path class="st0" d="M31.6,13.8c-1.2,0-2.2,1-2.2,2.2c0,1.2,1,2.2,2.2,2.2c1.2,0,2.2-1,2.2-2.2C33.8,14.8,32.8,13.8,31.6,13.8
		 M31.6,16.6c-0.3,0-0.6-0.3-0.6-0.6c0-0.3,0.3-0.6,0.6-0.6c0.3,0,0.6,0.3,0.6,0.6C32.2,16.3,31.9,16.6,31.6,16.6"/>
	<path class="st1" d="M31.6,13.8c-1.2,0-2.2,1-2.2,2.2c0,1.2,1,2.2,2.2,2.2c1.2,0,2.2-1,2.2-2.2C33.8,14.8,32.8,13.8,31.6,13.8
		 M31.6,16.6c-0.3,0-0.6-0.3-0.6-0.6c0-0.3,0.3-0.6,0.6-0.6c0.3,0,0.6,0.3,0.6,0.6C32.2,16.3,31.9,16.6,31.6,16.6"/>
</g>
</svg>
