<?xml version="1.0" encoding="utf-8"?>
<!-- Generator: Adobe Illustrator 22.1.0, SVG Export Plug-In . SVG Version: 6.00 Build 0)  -->
<svg version="1.1" id="Capa_1" xmlns="http://www.w3.org/2000/svg" xmlns:xlink="http://www.w3.org/1999/xlink" x="0px" y="0px"
	 viewBox="0 0 48 48" style="enable-background:new 0 0 48 48;" xml:space="preserve">
<style type="text/css">
	.st0{fill:#453F3F;}
</style>
<g>
	<path class="st0" d="M24.1,35.6h-3.8c-0.6,0-1.1-0.5-1.1-1.2v-8.6h-2.2c-0.6,0-1.1-0.5-1.1-1.2V21c0-0.6,0.5-1.2,1.1-1.2h2.2V18
		c0-1.8,0.6-3.4,1.7-4.5c1.1-1.1,2.6-1.7,4.4-1.7l2.9,0c0.6,0,1.2,0.5,1.2,1.2v3.4c0,0.6-0.5,1.2-1.2,1.2h-1.9
		c-0.6,0-0.8,0.1-0.8,0.2c0,0.1-0.1,0.2-0.1,0.7v1.5h2.7c0.2,0,0.4,0.1,0.6,0.1c0.4,0.2,0.6,0.6,0.6,1v3.7c0,0.6-0.5,1.2-1.2,1.2
		h-2.7v8.6C25.2,35.1,24.7,35.6,24.1,35.6 M20.5,34.2h3.3v-9c0-0.4,0.3-0.8,0.8-0.8h3.1v-3.2h-3.1c-0.4,0-0.8-0.3-0.8-0.8v-2.1
		c0-0.5,0.1-1.2,0.5-1.6c0.5-0.6,1.3-0.6,1.8-0.6l1.7,0v-2.9l-2.7,0c-2.9,0-4.7,1.8-4.7,4.8v2.5c0,0.4-0.3,0.8-0.8,0.8h-2.6v3.2h2.6
		c0.4,0,0.8,0.3,0.8,0.8V34.2z"/>
</g>
</svg>
