<?xml version="1.0" encoding="utf-8"?>
<!-- Generator: Adobe Illustrator 22.1.0, SVG Export Plug-In . SVG Version: 6.00 Build 0)  -->
<svg version="1.1" id="Capa_3" xmlns="http://www.w3.org/2000/svg" xmlns:xlink="http://www.w3.org/1999/xlink" x="0px" y="0px"
	 viewBox="0 0 48 48" style="enable-background:new 0 0 48 48;" xml:space="preserve">
<path d="M37,16.2c-0.1,0.1-0.3,0.1-0.4,0.2c0.3-0.4,0.5-0.9,0.7-1.4l0.6-1.8l-1.7,1c-0.9,0.5-1.8,0.9-2.8,1.1
	c-1.1-1-2.6-1.6-4.2-1.6c-3.4,0-6.1,2.7-6.1,6.1c0,0.1,0,0.3,0,0.4c-3.8-0.4-7.3-2.3-9.6-5.3L12.9,14l-0.5,0.9
	c-0.6,0.9-0.8,2-0.8,3.1c0,1.1,0.3,2.1,0.8,3l-0.8-0.4v1.2c0,1.7,0.7,3.4,2,4.5L13,26.3l0.4,1.1c0.6,1.8,2,3.3,3.8,3.9
	c-1.4,0.8-3.1,1.2-4.7,1.2c-0.5,0-0.8,0-1.2-0.1l-3.1-0.4l2.6,1.7c2.6,1.7,5.6,2.5,8.6,2.5c6,0,9.8-2.8,11.9-5.2
	c2.6-3,4.1-6.9,4.1-10.8c0-0.1,0-0.2,0-0.3c1-0.8,1.8-1.7,2.5-2.7l1.4-2.1L37,16.2z M33.9,19.7c0,0.2,0,0.4,0,0.6v0
	c0,9.1-7.4,14.5-14.5,14.5c-1.8,0-3.6-0.3-5.3-1c2-0.3,3.9-1.1,5.5-2.3l1.6-1.3l-2,0c-1.6,0-3-0.9-3.9-2.2c0.5,0,1-0.1,1.4-0.2
	l3.1-0.8l-3.1-0.6c-1.7-0.4-3.1-1.7-3.6-3.5c0.5,0.1,1,0.2,1.5,0.3l2.6,0.1L15,21.9C13.7,21,13,19.6,13,18c0-0.5,0.1-0.9,0.2-1.4
	c2.8,3,6.7,4.8,10.8,5l0.9,0l-0.2-0.9c-0.1-0.4-0.1-0.7-0.1-1.1c0-2.6,2.1-4.6,4.6-4.6c1.3,0,2.5,0.5,3.4,1.5l0.3,0.3l0.4-0.1
	c0.5-0.1,1-0.2,1.4-0.4c-0.3,0.3-0.6,0.5-0.9,0.7L31,18.8l3.3-0.4c0.3,0,0.5-0.1,0.8-0.1c-0.3,0.3-0.6,0.5-0.9,0.7l-0.3,0.2
	L33.9,19.7z"/>
</svg>
