<?xml version="1.0" encoding="utf-8"?>
<!-- Generator: Adobe Illustrator 22.1.0, SVG Export Plug-In . SVG Version: 6.00 Build 0)  -->
<svg version="1.1" id="Capa_1" xmlns="http://www.w3.org/2000/svg" xmlns:xlink="http://www.w3.org/1999/xlink" x="0px" y="0px"
	 viewBox="0 0 48 48" style="enable-background:new 0 0 48 48;" xml:space="preserve">
<style type="text/css">
	.st0{fill:#453F3F;}
</style>
<path class="st0" d="M16.7,18.5h-4.5c-0.5,0-0.9,0.4-0.9,0.9v17.1c0,0.5,0.4,0.9,0.9,0.9h4.5c0.5,0,0.9-0.4,0.9-0.9V19.4
	C17.6,18.9,17.2,18.5,16.7,18.5 M16,35.9h-3.2V20.1H16V35.9z"/>
<path class="st0" d="M14.4,10.5c-1.8,0-3.2,1.4-3.2,3.2c0,1.8,1.4,3.2,3.2,3.2c1.8,0,3.2-1.4,3.2-3.2C17.6,12,16.2,10.5,14.4,10.5
	 M14.4,15.4c-0.9,0-1.6-0.7-1.6-1.6c0-0.9,0.7-1.6,1.6-1.6c0.9,0,1.6,0.7,1.6,1.6C16,14.7,15.3,15.4,14.4,15.4"/>
<path class="st0" d="M32.3,20.5c-1.1-0.9-2.5-1.4-3.9-1.4c-0.9,0-1.7,0.2-2.5,0.6v-0.4c0-0.5-0.4-0.9-0.9-0.9h-4.6
	c-0.5,0-0.9,0.4-0.9,0.9v17.2c0,0.5,0.4,0.9,0.9,0.9h4.7c0.4,0,0.8-0.4,0.8-0.8V26.4c0-0.9,0.7-1.6,1.6-1.6c0.9,0,1.7,0.7,1.7,1.6
	v10.3c0,0.4,0.3,0.8,0.8,0.8h4.5c0.4,0,0.8-0.3,0.8-0.8v-10C35.2,24.3,34.1,22.1,32.3,20.5 M33.6,35.9h-2.9v-9.5
	c0-1.8-1.4-3.2-3.2-3.2c-1.8,0-3.2,1.4-3.2,3.2v9.5h-3.2V20.1h3.2v1.1c0,0.2,0.1,0.4,0.2,0.5c0.3,0.3,0.8,0.4,1.1,0.1
	c0.8-0.7,1.8-1.1,2.8-1.1c1,0,2.1,0.3,2.8,1c1.5,1.2,2.3,3.1,2.3,5V35.9z"/>
</svg>
