<?xml version="1.0" encoding="utf-8"?>
<!-- Generator: Adobe Illustrator 22.1.0, SVG Export Plug-In . SVG Version: 6.00 Build 0)  -->
<svg version="1.1" id="Capa_1" xmlns="http://www.w3.org/2000/svg" xmlns:xlink="http://www.w3.org/1999/xlink" x="0px" y="0px"
	 viewBox="0 0 46 46" style="enable-background:new 0 0 46 46;" xml:space="preserve">
<style type="text/css">
	.st0{fill:#FFFFFF;}
</style>
<path class="st0" d="M23,0C10.3,0,0,10.3,0,23c0,12.7,10.3,23,23,23s23-10.3,23-23C46,10.3,35.7,0,23,0z M18.7,17.2
	c0.4-0.8,1.1-1.4,1.8-1.8s1.6-0.7,2.5-0.7s1.7,0.2,2.5,0.7s1.4,1.1,1.8,1.8s0.7,1.6,0.7,2.5s-0.2,1.7-0.7,2.5s-1.1,1.4-1.8,1.8
	c-0.8,0.4-1.6,0.7-2.5,0.7s-1.7-0.2-2.5-0.7c-0.8-0.4-1.4-1.1-1.8-1.8S18,20.6,18,19.7S18.2,18,18.7,17.2z M31,29.2
	c0,0.4-0.1,0.8-0.4,1.1s-0.6,0.4-1.1,0.4h-13c-0.4,0-0.8-0.1-1.1-0.4S15,29.6,15,29.2V28c0-0.7,0.2-1.3,0.6-1.8s1-0.9,1.6-1.1
	l2.2-0.6c1,0.7,2.1,1.1,3.3,1.1c1.4,0,2.6-0.3,3.7-1.1l2.2,0.6c0.7,0.2,1.2,0.5,1.6,1.1S31,27.4,31,28V29.2z"/>
</svg>
