<?xml version="1.0" encoding="utf-8"?>
<!-- Generator: Adobe Illustrator 22.1.0, SVG Export Plug-In . SVG Version: 6.00 Build 0)  -->
<svg version="1.1" id="Capa_1_copia_2" xmlns="http://www.w3.org/2000/svg" xmlns:xlink="http://www.w3.org/1999/xlink" x="0px"
	 y="0px" viewBox="0 0 46 46" style="enable-background:new 0 0 46 46;" xml:space="preserve">
<style type="text/css">
	.st0{fill:#FFFFFF;}
</style>
<path class="st0" d="M23,0C10.3,0,0,10.3,0,23c0,12.7,10.3,23,23,23s23-10.3,23-23C46,10.3,35.7,0,23,0z M31,27.2
	c0,0.4-0.1,0.8-0.4,1.1s-0.6,0.4-1.1,0.4h-13c-0.4,0-0.8-0.1-1.1-0.4S15,27.6,15,27.2v-6.4c0-0.1,0-0.1,0.1-0.2s0.1,0,0.2,0
	c0.7,0.5,2.3,1.7,4.8,3.5l0.3,0.3c0.5,0.4,0.9,0.6,1.2,0.8c0.5,0.3,1,0.4,1.4,0.4s0.9-0.1,1.4-0.4c0.3-0.2,0.7-0.4,1.2-0.8l0.3-0.2
	c2.5-1.8,4.1-2.9,4.8-3.5c0.1-0.1,0.1-0.1,0.2,0s0.1,0.1,0.1,0.2V27.2z M31,18.8c0,0.2-0.1,0.4-0.3,0.6l-0.2,0.1
	c-0.9,0.7-2.7,2-5.3,3.9L25,23.6c-0.4,0.3-0.7,0.6-1,0.7c-0.4,0.2-0.7,0.4-1,0.4s-0.6-0.1-1-0.4c-0.2-0.1-0.6-0.4-1-0.7l-0.3-0.2
	c-2.6-1.9-4.3-3.2-5.2-3.9l-0.2-0.2C15.1,19.2,15,19,15,18.8v-0.6c0-0.4,0.1-0.8,0.4-1.1s0.6-0.4,1.1-0.4h13c0.4,0,0.8,0.1,1.1,0.4
	s0.4,0.6,0.4,1.1V18.8z"/>
</svg>
