<?xml version="1.0" encoding="utf-8"?>
<!-- Generator: Adobe Illustrator 22.1.0, SVG Export Plug-In . SVG Version: 6.00 Build 0)  -->
<svg version="1.1" id="Capa_1_copia" xmlns="http://www.w3.org/2000/svg" xmlns:xlink="http://www.w3.org/1999/xlink" x="0px"
	 y="0px" viewBox="0 0 46 46" style="enable-background:new 0 0 46 46;" xml:space="preserve">
<style type="text/css">
	.st0{fill:#FFFFFF;}
</style>
<g>
	<path class="st0" d="M23.5,17.7c-0.6-0.4-1.3-0.5-2-0.5s-1.4,0.2-2,0.5s-1.1,0.8-1.5,1.5s-0.5,1.3-0.5,2s0.2,1.4,0.5,2
		s0.8,1.1,1.5,1.5s1.3,0.5,2,0.5s1.4-0.2,2-0.5c0.6-0.4,1.1-0.8,1.5-1.5s0.5-1.3,0.5-2s-0.2-1.4-0.5-2S24.1,18.1,23.5,17.7z"/>
	<path class="st0" d="M23,0C10.3,0,0,10.3,0,23c0,12.7,10.3,23,23,23s23-10.3,23-23C46,10.3,35.7,0,23,0z M30.8,29.6l-0.9,0.9
		c-0.1,0.1-0.3,0.2-0.5,0.2s-0.4-0.1-0.5-0.2l-3.1-3.1c-0.1-0.1-0.2-0.3-0.2-0.5v-0.5c-1.2,0.9-2.5,1.4-4,1.4
		c-1.2,0-2.3-0.3-3.3-0.9s-1.8-1.4-2.4-2.4c-0.6-1-0.9-2.1-0.9-3.3s0.3-2.3,0.9-3.3s1.4-1.8,2.4-2.4s2.1-0.9,3.3-0.9
		s2.3,0.3,3.3,0.9c1,0.6,1.8,1.4,2.4,2.4S28,20,28,21.2c0,1.5-0.5,2.8-1.4,4h0.5c0.2,0,0.4,0.1,0.5,0.2l3.1,3.1
		c0.1,0.1,0.2,0.3,0.2,0.5S30.9,29.5,30.8,29.6z"/>
</g>
</svg>
