<?xml version="1.0" encoding="utf-8"?>
<!-- Generator: Adobe Illustrator 22.1.0, SVG Export Plug-In . SVG Version: 6.00 Build 0)  -->
<svg version="1.1" id="Capa_1" xmlns="http://www.w3.org/2000/svg" xmlns:xlink="http://www.w3.org/1999/xlink" x="0px" y="0px"
	 viewBox="0 0 105 105" style="enable-background:new 0 0 105 105;" xml:space="preserve">
<style type="text/css">
	.st0{fill:#FFFFFF;}
</style>
<g>
	<path class="st0" d="M68.6,8.1c0.6-0.4,1.2-0.7,1.9-0.8s1.4,0,2.1,0.4c0.8,0.4,1.5,0.9,1.8,1.5c0.1,0.3,0.2,0.5,0.3,0.7
		c0,0.2,0,0.4-0.1,0.6c-0.1,0.2-0.2,0.4-0.4,0.4C74,11,73.8,11,73.6,11s-0.3,0-0.3-0.1c0-0.4-0.2-0.7-0.4-1
		c-0.2-0.3-0.5-0.5-0.9-0.7C71.6,9,71.2,9,70.8,9c-0.4,0.1-0.7,0.2-1.1,0.5s-0.6,0.6-0.8,1.1c-0.2,0.4-0.3,0.9-0.2,1.3
		c0,0.4,0.2,0.8,0.4,1.1s0.5,0.6,0.9,0.7c0.4,0.2,0.8,0.2,1.2,0.2c0.4-0.1,0.7-0.2,1-0.5c0,0,0.1,0,0.3,0.1s0.3,0.3,0.4,0.5
		c0.1,0.2,0.1,0.4,0,0.6c-0.1,0.2-0.2,0.3-0.4,0.5c-0.2,0.1-0.5,0.3-0.7,0.3c-0.7,0.2-1.5,0.1-2.4-0.3c-0.7-0.3-1.3-0.7-1.7-1.3
		c-0.4-0.6-0.7-1.2-0.7-1.9s0.1-1.4,0.4-2.1S68.1,8.5,68.6,8.1z"/>
	<path class="st0" d="M73.2,16.5c0-0.2,0-0.5,0.2-0.7l3.2-4.8c0.2-0.3,0.4-0.4,0.6-0.5c0.2-0.1,0.5,0,0.7,0.2l3.6,2.4
		c0.5,0.3,0.5,0.6,0.3,1l0,0c-0.3,0.4-0.6,0.4-1.1,0.1l-2.9-1.9l-0.9,1.4l2.1,1.4c0.2,0.2,0.4,0.3,0.4,0.5c0,0.2,0,0.3-0.1,0.5l0,0
		c-0.1,0.2-0.3,0.3-0.5,0.3c-0.2,0-0.4,0-0.6-0.2l-2.1-1.4l-1,1.5l2.9,2c0.2,0.2,0.4,0.3,0.4,0.5c0,0.2,0,0.3-0.1,0.5l0,0.1
		c-0.1,0.2-0.3,0.3-0.5,0.3c-0.2,0-0.4,0-0.6-0.2l-3.6-2.4C73.4,17,73.3,16.8,73.2,16.5z"/>
	<path class="st0" d="M79.2,20l4.3-4.4c0.2-0.2,0.4-0.3,0.6-0.3c0.2,0,0.4,0.1,0.6,0.2l0.2,0.2c0.2,0.2,0.2,0.3,0.3,0.4s0,0.3,0,0.6
		l-0.8,5.6l3-3.1c0.4-0.4,0.7-0.4,1.1-0.1l0.1,0.1c0.4,0.3,0.3,0.7,0,1.1l-4.3,4.4C84,24.9,83.8,25,83.6,25c-0.2,0-0.4-0.1-0.6-0.2
		l-0.1-0.1c-0.2-0.1-0.2-0.3-0.3-0.4s0-0.3,0-0.5l0.8-5.9l-3.1,3.2c-0.4,0.4-0.7,0.4-1.1,0l-0.1-0.1C78.8,20.7,78.8,20.4,79.2,20z"
		/>
	<path class="st0" d="M90.6,24.3l-1-1.4c-0.2-0.2-0.2-0.4-0.2-0.6c0-0.2,0.1-0.4,0.3-0.5l0,0c0.2-0.1,0.4-0.2,0.6-0.1
		c0.2,0,0.3,0.2,0.5,0.4l3,4.3c0.3,0.4,0.3,0.8-0.1,1.1l0,0c-0.4,0.3-0.8,0.2-1.1-0.2l-1-1.4l-4.4,3.2c-0.2,0.2-0.4,0.2-0.6,0.2
		s-0.4-0.2-0.5-0.4l-0.1-0.2c-0.3-0.4-0.2-0.8,0.2-1.1L90.6,24.3z"/>
	<path class="st0" d="M88.6,32.1c0.1-0.2,0.3-0.3,0.6-0.5l5.3-2.5c0.3-0.1,0.5-0.2,0.8-0.1c0.2,0.1,0.4,0.2,0.5,0.5l1,2.1
		c0.4,0.9,0.6,1.7,0.4,2.3c-0.1,0.6-0.6,1.1-1.3,1.5c-0.5,0.2-1,0.3-1.4,0.2s-0.9-0.3-1.2-0.8c-0.1-0.1-0.2-0.2-0.2-0.3l-1.3,2.9
		c0,0-0.1,0.1-0.2,0c-0.1,0-0.3-0.1-0.4-0.2c-0.1-0.1-0.3-0.3-0.4-0.5c-0.1-0.2-0.1-0.4-0.1-0.6c0-0.2,0.1-0.4,0.3-0.7l1.2-2.5
		l-0.3-0.6l-1.8,0.9c-0.2,0.1-0.4,0.1-0.6,0.1c-0.2-0.1-0.3-0.2-0.4-0.4l-0.1-0.2C88.5,32.5,88.5,32.3,88.6,32.1z M93.3,33
		c0.2,0.4,0.4,0.7,0.7,0.8s0.6,0.1,0.9-0.1c0.7-0.3,0.8-0.9,0.4-1.8l-0.6-1.2l-2.1,1L93.3,33z"/>
	<path class="st0" d="M92.2,40c0.2-0.7,0.5-1.2,1-1.7c0.5-0.5,1.1-0.8,1.9-1c0.8-0.2,1.5-0.2,2.2,0c0.7,0.2,1.3,0.5,1.8,1
		c0.5,0.5,0.8,1.1,1,1.9c0.2,0.7,0.2,1.5,0,2.1c-0.2,0.7-0.5,1.2-1,1.7c-0.5,0.5-1.1,0.8-1.9,1s-1.5,0.2-2.2,0
		c-0.7-0.2-1.3-0.5-1.8-1s-0.8-1.1-1-1.9C92,41.4,92,40.7,92.2,40z M94.3,42.8c0.3,0.3,0.6,0.5,1,0.5c0.4,0.1,0.8,0.1,1.3-0.1
		c0.5-0.1,0.9-0.3,1.2-0.6s0.5-0.6,0.7-1c0.1-0.4,0.1-0.8,0-1.2c-0.1-0.4-0.3-0.8-0.6-1c-0.3-0.3-0.6-0.5-1-0.5
		c-0.4-0.1-0.9-0.1-1.3,0.1c-0.5,0.1-0.9,0.3-1.2,0.6s-0.5,0.6-0.6,1c-0.1,0.4-0.1,0.8,0,1.2C93.8,42.2,94,42.5,94.3,42.8z"/>
	<path class="st0" d="M100.4,48.8c0.3,0,0.5,0.1,0.7,0.2c0.2,0.2,0.3,0.4,0.3,0.7l0,2c0,0.9-0.1,1.6-0.4,2.2s-0.7,1.1-1.3,1.5
		c-0.6,0.3-1.3,0.5-2,0.5c-0.8,0-1.5-0.1-2.1-0.5c-0.6-0.3-1.1-0.8-1.4-1.4s-0.5-1.4-0.5-2.2l0-1.8c0-0.3,0.1-0.5,0.3-0.7
		c0.2-0.2,0.4-0.3,0.7-0.3L100.4,48.8z M95.8,53.5c0.4,0.4,1,0.6,1.8,0.6c0.7,0,1.3-0.2,1.7-0.7c0.4-0.4,0.6-1,0.6-1.8l0-1.1
		l-4.7,0.1l0,1.1C95.2,52.5,95.4,53.1,95.8,53.5z"/>
	<path class="st0" d="M93.7,57.2c0.2-0.1,0.4-0.2,0.8-0.1l5.7,1c0.3,0.1,0.5,0.2,0.7,0.4s0.2,0.4,0.1,0.7l-0.8,4.3
		c-0.1,0.5-0.4,0.8-0.8,0.7l-0.1,0c-0.5-0.1-0.6-0.4-0.6-0.9l0.6-3.4l-1.6-0.3l-0.4,2.5c0,0.3-0.1,0.5-0.3,0.6
		c-0.1,0.1-0.3,0.1-0.5,0.1l0,0c-0.2,0-0.4-0.1-0.5-0.3C96,62.2,96,62,96,61.7l0.4-2.5l-1.8-0.3L94,62.4c0,0.3-0.1,0.5-0.3,0.6
		c-0.1,0.1-0.3,0.1-0.5,0.1l-0.1,0c-0.2,0-0.4-0.1-0.5-0.3c-0.1-0.2-0.1-0.4-0.1-0.6l0.8-4.3C93.4,57.5,93.5,57.3,93.7,57.2z"/>
	<path class="st0" d="M91.7,66c0.2-0.1,0.4,0,0.6,0.1l5.6,2.3c0.3,0.1,0.5,0.3,0.6,0.5s0.1,0.5,0,0.7l-0.8,1.9
		c-0.4,1-0.9,1.6-1.5,1.9c-0.6,0.3-1.3,0.3-2.1,0c-0.8-0.3-1.3-0.8-1.5-1.5c-0.2-0.7-0.1-1.5,0.3-2.4l0.5-1.1l-1.6-0.7
		c-0.2-0.1-0.4-0.2-0.5-0.4s-0.1-0.4,0-0.6l0.1-0.2C91.4,66.2,91.5,66,91.7,66z M93.9,71c0.1,0.3,0.3,0.6,0.7,0.7s0.7,0.2,1,0
		c0.3-0.2,0.5-0.5,0.7-0.9l0.4-1.1l-2.3-1L94,69.9C93.8,70.3,93.8,70.7,93.9,71z"/>
	<path class="st0" d="M90.2,72.5c0.1,0.1,0.2,0.2,0.3,0.4c0.1,0.2,0.1,0.3,0.1,0.5c0,0.1,0,0.2,0,0.2c-0.4,0.1-0.8,0.2-1.2,0.5
		c-0.4,0.2-0.7,0.6-0.9,0.9c-0.2,0.4-0.4,0.7-0.4,1c0,0.3,0.1,0.5,0.4,0.7c0.2,0.1,0.4,0.1,0.6,0.1c0.2-0.1,0.4-0.2,0.5-0.3
		c0.2-0.1,0.4-0.4,0.7-0.7c0.4-0.4,0.7-0.6,1-0.9c0.3-0.2,0.7-0.3,1.1-0.4s0.8,0.1,1.2,0.4c0.4,0.3,0.7,0.6,0.9,1
		c0.2,0.4,0.2,0.8,0.1,1.3c-0.1,0.5-0.3,1-0.6,1.5c-0.3,0.4-0.5,0.8-0.8,1c-0.3,0.3-0.6,0.4-0.8,0.6c-0.2,0.1-0.4,0.1-0.6,0.1
		c-0.2,0-0.3,0-0.5-0.1c-0.1-0.1-0.2-0.2-0.3-0.4c-0.1-0.2-0.1-0.3-0.1-0.5c0-0.2,0-0.2,0-0.2c0.4-0.1,0.7-0.2,1.1-0.4
		c0.3-0.2,0.6-0.5,0.8-0.8c0.2-0.4,0.3-0.7,0.3-1c0-0.3-0.1-0.5-0.4-0.7c-0.2-0.1-0.3-0.1-0.5-0.1c-0.2,0-0.3,0.1-0.5,0.3
		c-0.1,0.1-0.4,0.4-0.7,0.7c-0.6,0.6-1.2,1-1.7,1.2c-0.6,0.2-1.1,0.1-1.7-0.2c-0.7-0.4-1-1-1.1-1.7c-0.1-0.7,0.2-1.5,0.7-2.3
		c0.3-0.5,0.6-0.9,1-1.2c0.3-0.3,0.7-0.5,1-0.6C89.6,72.3,89.9,72.3,90.2,72.5z"/>
	<path class="st0" d="M90.5,82.1c0.4,0.3,0.5,0.7,0.1,1.1l-0.2,0.2c-0.3,0.4-0.7,0.4-1.1,0.1l-4.9-3.9c-0.4-0.3-0.5-0.7-0.1-1.1
		l0.2-0.2c0.2-0.2,0.3-0.3,0.5-0.3s0.4,0.1,0.6,0.2L90.5,82.1z"/>
	<path class="st0" d="M87,84.7c0.2,0.7,0.2,1.3,0,2c-0.2,0.7-0.6,1.3-1.2,1.8c-0.7,0.6-1.4,1-2.1,1.1c-0.3,0-0.5,0-0.8,0
		c-0.2-0.1-0.4-0.2-0.5-0.3c-0.2-0.2-0.2-0.4-0.2-0.6c0-0.2,0.1-0.4,0.2-0.6c0.1-0.2,0.2-0.2,0.2-0.2c0.4,0.1,0.7,0.1,1.1,0
		c0.4-0.1,0.7-0.3,1-0.6c0.3-0.3,0.5-0.6,0.6-1c0.1-0.4,0.1-0.8,0-1.2c-0.1-0.4-0.3-0.8-0.7-1.1c-0.3-0.3-0.7-0.6-1.1-0.7
		c-0.4-0.1-0.8-0.2-1.2-0.1s-0.7,0.3-1.1,0.6c-0.3,0.3-0.5,0.7-0.6,1s-0.1,0.8,0,1.1c0,0-0.1,0.1-0.2,0.2c-0.2,0.1-0.4,0.1-0.6,0.1
		c-0.2,0-0.4-0.1-0.6-0.2c-0.1-0.1-0.2-0.3-0.3-0.6s-0.1-0.5,0-0.8c0.1-0.8,0.5-1.5,1.2-2.1c0.6-0.5,1.2-0.9,1.9-1
		c0.7-0.2,1.3-0.1,2,0.1c0.7,0.2,1.3,0.6,1.8,1.2C86.5,83.4,86.8,84.1,87,84.7z"/>
	<path class="st0" d="M76.4,86.5c0.7,0,1.3,0.1,2,0.5c0.6,0.3,1.1,0.8,1.5,1.5c0.4,0.7,0.6,1.3,0.7,2c0,0.7-0.1,1.4-0.4,2
		c-0.3,0.6-0.8,1.1-1.5,1.5s-1.3,0.6-2,0.7s-1.3-0.1-2-0.5c-0.6-0.3-1.1-0.8-1.5-1.5s-0.6-1.3-0.7-2c0-0.7,0.1-1.4,0.4-2
		c0.3-0.6,0.8-1.1,1.5-1.5C75,86.8,75.7,86.6,76.4,86.5z M74.4,89.4c-0.2,0.4-0.2,0.7-0.2,1.2s0.2,0.8,0.4,1.2
		c0.3,0.4,0.6,0.7,0.9,0.9c0.4,0.2,0.7,0.3,1.1,0.3s0.8-0.1,1.1-0.3c0.4-0.2,0.6-0.5,0.8-0.9c0.2-0.4,0.2-0.7,0.2-1.2
		c0-0.4-0.2-0.8-0.5-1.2c-0.3-0.4-0.6-0.7-0.9-0.9s-0.7-0.3-1.1-0.3c-0.4,0-0.8,0.1-1.2,0.4C74.8,88.8,74.5,89.1,74.4,89.4z"/>
	<path class="st0" d="M70,90.1c0.2,0.1,0.4,0.3,0.5,0.6l2.2,5.6c0.2,0.5,0.1,0.8-0.4,1l-0.2,0.1c-0.5,0.2-0.8,0-1-0.5l-2-5.1
		L66.4,93c-0.5,0.2-0.8,0.1-1-0.4l0,0c-0.1-0.2-0.1-0.4,0-0.6c0.1-0.2,0.2-0.3,0.5-0.4l3.5-1.4C69.6,90,69.8,90,70,90.1z"/>
	<path class="st0" d="M63.5,92.6c0.7,0.2,1.2,0.6,1.7,1.1s0.8,1.2,0.9,1.9c0.2,0.8,0.1,1.5-0.1,2.2S65.5,99,65,99.5s-1.2,0.8-1.9,1
		c-0.8,0.2-1.5,0.1-2.1-0.1c-0.7-0.2-1.2-0.6-1.7-1.1s-0.8-1.2-0.9-1.9s-0.2-1.5,0-2.2s0.6-1.2,1.1-1.7s1.2-0.8,1.9-0.9
		C62.1,92.4,62.8,92.4,63.5,92.6z M60.6,94.6c-0.3,0.3-0.5,0.6-0.6,1c-0.1,0.4-0.1,0.8,0,1.3c0.1,0.5,0.3,0.9,0.6,1.2
		c0.3,0.3,0.6,0.6,1,0.7s0.8,0.2,1.2,0.1c0.4-0.1,0.8-0.3,1.1-0.5s0.5-0.6,0.6-1c0.1-0.4,0.1-0.9,0-1.3c-0.1-0.5-0.3-0.9-0.6-1.2
		c-0.3-0.3-0.6-0.6-1-0.7c-0.4-0.1-0.8-0.1-1.2-0.1C61.3,94.2,60.9,94.4,60.6,94.6z"/>
	<path class="st0" d="M49.5,97.8c-0.1-0.1-0.2-0.3-0.2-0.6l-0.1-3.3c0,0,0.1-0.1,0.2-0.1c0.1,0,0.3-0.1,0.4-0.1
		c0.2,0,0.4,0.1,0.6,0.2s0.3,0.4,0.3,0.7c0,0.1,0,0.1,0,0.2c0.2-0.4,0.5-0.7,1-0.9s0.9-0.3,1.5-0.3c0.7,0,1.4,0.2,1.9,0.5
		s1,0.8,1.3,1.4c0.3,0.6,0.5,1.3,0.5,2.1c0,0.8-0.1,1.5-0.5,2.1c-0.3,0.6-0.8,1.1-1.4,1.5c-0.6,0.4-1.3,0.5-2.1,0.6
		c-0.9,0-1.6-0.2-2.2-0.5c-0.3-0.2-0.5-0.3-0.6-0.5c-0.1-0.2-0.2-0.4-0.2-0.6c0-0.2,0.1-0.4,0.2-0.5c0.1-0.1,0.3-0.2,0.4-0.3
		s0.3-0.1,0.3,0c0.2,0.3,0.5,0.6,0.9,0.7c0.4,0.2,0.7,0.3,1.1,0.3c0.5,0,0.9-0.1,1.2-0.3s0.6-0.5,0.8-0.9c0.2-0.4,0.3-0.8,0.3-1.4
		c0-0.5-0.1-1-0.3-1.4s-0.5-0.7-0.8-0.9c-0.3-0.2-0.7-0.3-1.2-0.3c-0.5,0-0.9,0.1-1.3,0.4c-0.3,0.2-0.5,0.6-0.6,1l0,0.4l1.3,0
		c0.3,0,0.5,0,0.6,0.1c0.1,0.1,0.2,0.3,0.2,0.5l0,0.1c0,0.2-0.1,0.4-0.2,0.5c-0.1,0.1-0.3,0.1-0.7,0.1l-2.2,0
		C49.8,98,49.6,97.9,49.5,97.8z"/>
	<path class="st0" d="M47.1,101.8c0,0,0.1,0.1,0,0.1c0,0.1-0.1,0.4-0.4,0.7s-0.5,0.6-0.8,0.8c-0.3,0.2-0.6,0.3-0.9,0.3
		c-0.2,0-0.4-0.1-0.5-0.3c-0.1-0.1-0.2-0.3-0.1-0.5c0-0.3,0.2-0.5,0.5-0.7c0.3-0.2,0.7-0.3,1.1-0.4c0.4-0.1,0.7-0.1,0.9-0.1
		C47,101.7,47.1,101.8,47.1,101.8z M47.1,100.4c-0.1,0.5-0.4,0.8-0.9,0.7l-0.2,0c-0.5-0.1-0.7-0.4-0.7-0.9l0.8-6.2
		c0.1-0.5,0.4-0.8,0.9-0.7l0.2,0c0.2,0,0.4,0.1,0.5,0.3c0.1,0.2,0.1,0.4,0.1,0.6L47.1,100.4z"/>
	<path class="st0" d="M45,93.1c0.1,0.1,0.2,0.2,0.3,0.3c0.1,0.1,0.1,0.2,0.1,0.2L41,99.6c-0.1,0.2-0.2,0.3-0.4,0.3
		c-0.2,0-0.5,0-0.8-0.1s-0.6-0.2-0.7-0.3c-0.1-0.1-0.2-0.3-0.2-0.5L38,91.7c0-0.1,0-0.1,0.2-0.2c0.1-0.1,0.3-0.1,0.4-0.1
		c0.2,0,0.3,0,0.5,0c0.5,0.1,0.7,0.5,0.8,1.1l0.1,1.3l2.7,0.7l0.8-1.1c0.3-0.5,0.7-0.7,1.1-0.5C44.7,93,44.9,93,45,93.1z M40,95.2
		l0.3,3l1.8-2.4L40,95.2z"/>
	<path class="st0" d="M27.6,90.4c0-0.2,0-0.4,0.2-0.6l1.6-2.9c0,0,0.1,0,0.2,0S29.9,87,30,87c0.2,0.1,0.3,0.3,0.4,0.5s0,0.5-0.1,0.8
		c0,0.1,0,0.1-0.1,0.2c0.4-0.2,0.8-0.3,1.3-0.3s0.9,0.2,1.4,0.4c0.6,0.3,1.1,0.8,1.4,1.4c0.3,0.6,0.5,1.2,0.4,1.9
		c0,0.7-0.2,1.4-0.6,2c-0.4,0.7-0.9,1.2-1.5,1.6c-0.6,0.4-1.2,0.6-2,0.6c-0.7,0-1.4-0.2-2.1-0.6c-0.8-0.4-1.3-0.9-1.7-1.5
		c-0.1-0.3-0.2-0.5-0.3-0.8c0-0.2,0-0.5,0.1-0.6c0.1-0.2,0.2-0.3,0.4-0.4s0.4-0.1,0.5,0c0.2,0,0.3,0.1,0.3,0.1
		c0,0.4,0.2,0.7,0.4,1.1s0.5,0.6,0.9,0.8c0.4,0.2,0.8,0.3,1.2,0.3c0.4,0,0.8-0.1,1.2-0.4c0.4-0.2,0.7-0.6,0.9-1
		c0.2-0.4,0.4-0.9,0.4-1.3c0-0.4-0.1-0.8-0.3-1.2c-0.2-0.4-0.5-0.6-0.9-0.9c-0.4-0.2-0.9-0.3-1.3-0.3c-0.4,0-0.7,0.2-1,0.5l-0.2,0.3
		l1.2,0.6c0.3,0.1,0.4,0.3,0.5,0.4c0.1,0.1,0.1,0.3-0.1,0.5l0,0.1c-0.1,0.2-0.3,0.3-0.4,0.3c-0.2,0-0.4,0-0.6-0.2L28,90.9
		C27.8,90.8,27.7,90.6,27.6,90.4z"/>
	<path class="st0" d="M28.3,86.2c0,0.2-0.1,0.5-0.3,0.7l-3.7,4.5c-0.2,0.2-0.4,0.4-0.7,0.4c-0.2,0-0.5,0-0.7-0.2l-3.3-2.7
		c-0.4-0.3-0.5-0.7-0.2-1.1l0,0c0.3-0.4,0.7-0.4,1.1,0l2.7,2.2l1-1.3l-2-1.6c-0.2-0.2-0.3-0.4-0.4-0.5c0-0.2,0-0.3,0.2-0.5l0,0
		c0.1-0.2,0.3-0.3,0.5-0.3c0.2,0,0.4,0.1,0.6,0.3l2,1.6l1.1-1.4l-2.7-2.2c-0.2-0.2-0.3-0.3-0.4-0.5c0-0.2,0-0.3,0.2-0.5l0,0
		c0.2-0.2,0.3-0.3,0.5-0.3c0.2,0,0.4,0.1,0.6,0.2l3.4,2.8C28.1,85.8,28.2,86,28.3,86.2z"/>
	<path class="st0" d="M22.7,82.2l-4.7,4c-0.2,0.2-0.4,0.3-0.6,0.3c-0.2,0-0.4-0.1-0.5-0.3L16.7,86c-0.1-0.2-0.2-0.3-0.2-0.5
		c0-0.1,0-0.3,0-0.6l1.4-5.5l-3.3,2.8c-0.4,0.3-0.8,0.3-1.1-0.1L13.3,82c-0.3-0.4-0.3-0.7,0.1-1.1l4.7-4c0.2-0.2,0.4-0.3,0.6-0.3
		c0.2,0,0.4,0.1,0.5,0.3l0.1,0.1c0.1,0.2,0.2,0.3,0.2,0.4c0,0.1,0,0.3,0,0.5l-1.4,5.7l3.4-2.9c0.4-0.3,0.8-0.3,1.1,0.1l0.1,0.1
		C23.2,81.5,23.1,81.8,22.7,82.2z"/>
	<path class="st0" d="M17.8,75.3c-0.1,0.2-0.2,0.4-0.5,0.6l-5,2.9C12,79,11.8,79,11.6,79c-0.2-0.1-0.4-0.2-0.6-0.5l-2.1-3.7
		c-0.3-0.5-0.2-0.8,0.2-1.1l0.1,0c0.4-0.2,0.7-0.1,1,0.4l1.7,3l1.4-0.8L12,74c-0.1-0.2-0.2-0.5-0.2-0.6c0-0.2,0.1-0.3,0.3-0.4l0,0
		c0.2-0.1,0.4-0.1,0.5-0.1c0.2,0.1,0.3,0.2,0.5,0.5l1.3,2.2l1.6-0.9l-1.8-3.1c-0.1-0.2-0.2-0.4-0.2-0.6c0-0.2,0.1-0.3,0.3-0.4l0.1,0
		c0.2-0.1,0.4-0.2,0.6-0.1c0.2,0.1,0.3,0.2,0.5,0.4l2.2,3.8C17.9,74.9,17.9,75.1,17.8,75.3z"/>
	<path class="st0" d="M14.6,69.2c-0.1,0.2-0.3,0.3-0.6,0.4l-5.5,2c-0.3,0.1-0.5,0.1-0.8,0c-0.2-0.1-0.4-0.3-0.5-0.5L6.4,69
		C6.1,68,6,67.3,6.2,66.6c0.2-0.6,0.7-1.1,1.4-1.3c0.5-0.2,1-0.2,1.5-0.1c0.4,0.1,0.8,0.4,1.2,0.9c0.1,0.1,0.1,0.2,0.2,0.3l1.6-2.8
		c0,0,0.1,0,0.2,0c0.1,0,0.3,0.1,0.4,0.2c0.1,0.1,0.2,0.3,0.3,0.5c0.1,0.2,0.1,0.4,0.1,0.6c0,0.2-0.2,0.4-0.3,0.7l-1.4,2.3l0.2,0.6
		l1.9-0.7c0.2-0.1,0.4-0.1,0.6,0s0.3,0.2,0.4,0.5l0.1,0.2C14.7,68.9,14.7,69.1,14.6,69.2z M9.9,67.8c-0.2-0.4-0.4-0.7-0.6-0.9
		c-0.3-0.2-0.6-0.2-0.9,0c-0.7,0.3-0.9,0.8-0.6,1.8l0.4,1.2l2.2-0.8L9.9,67.8z"/>
	<path class="st0" d="M12.5,62.7c0,0.2-0.1,0.3-0.2,0.4c-0.1,0.1-0.1,0.2-0.2,0.1l-7.2-1.5c-0.2,0-0.3-0.1-0.4-0.3
		c-0.1-0.2-0.2-0.4-0.3-0.8c-0.1-0.4-0.1-0.6,0-0.8c0.1-0.2,0.2-0.3,0.3-0.4l6.3-3.8c0,0,0.1,0,0.2,0.1s0.2,0.2,0.3,0.3
		c0.1,0.1,0.2,0.3,0.2,0.5c0.1,0.5-0.1,0.8-0.7,1.1l-1.1,0.7l0.5,2.8l1.3,0.3c0.6,0.1,0.9,0.4,1,0.8C12.5,62.4,12.5,62.6,12.5,62.7z
		 M8.5,59l-2.6,1.5l3,0.6L8.5,59z"/>
	<path class="st0" d="M11,54.8c-0.2,0.2-0.4,0.2-0.7,0.2l-6-0.1c-0.5,0-0.8-0.3-0.8-0.8l0-0.3c0-0.5,0.3-0.8,0.8-0.8l5.4,0.1l0-2.9
		c0-0.5,0.3-0.8,0.8-0.8l0,0c0.2,0,0.4,0.1,0.6,0.2c0.1,0.1,0.2,0.3,0.2,0.6l-0.1,3.7C11.3,54.4,11.2,54.6,11,54.8z"/>
	<path class="st0" d="M10.1,47.2c-0.1,0-0.3-0.1-0.4-0.2c-0.1-0.1-0.2-0.2-0.3-0.4c-0.1-0.1-0.1-0.2-0.1-0.2
		c0.3-0.2,0.6-0.5,0.9-0.8c0.3-0.4,0.5-0.8,0.5-1.2c0.1-0.5,0.1-0.8,0-1.1c-0.1-0.3-0.3-0.4-0.6-0.5c-0.2,0-0.4,0-0.5,0.1
		s-0.3,0.3-0.4,0.5c-0.1,0.2-0.2,0.5-0.4,0.9c-0.2,0.5-0.4,0.9-0.7,1.2c-0.2,0.3-0.5,0.6-0.9,0.7c-0.4,0.2-0.8,0.2-1.3,0.1
		c-0.5-0.1-0.9-0.3-1.2-0.6c-0.3-0.3-0.5-0.7-0.6-1.2s-0.1-1,0-1.6c0.1-0.5,0.2-0.9,0.4-1.3c0.2-0.3,0.4-0.6,0.6-0.8
		c0.2-0.1,0.3-0.3,0.5-0.3c0.2-0.1,0.3-0.1,0.5,0c0.2,0,0.3,0.1,0.4,0.2C6.9,40.6,7,40.8,7,40.9s0.1,0.2,0.1,0.2
		c-0.3,0.2-0.6,0.4-0.8,0.8C6,42.2,5.8,42.6,5.8,43c-0.1,0.4-0.1,0.7,0,1c0.1,0.3,0.3,0.4,0.6,0.5c0.2,0,0.4,0,0.5-0.1
		C7,44.3,7.2,44.1,7.2,44c0.1-0.2,0.2-0.5,0.4-0.9c0.3-0.8,0.7-1.3,1.2-1.7s1-0.5,1.7-0.4c0.8,0.2,1.3,0.5,1.6,1.2
		c0.3,0.6,0.4,1.4,0.2,2.4c-0.1,0.6-0.3,1-0.5,1.4c-0.2,0.4-0.4,0.7-0.7,0.9C10.8,47.1,10.5,47.2,10.1,47.2z"/>
	<path class="st0" d="M12.9,40.8c-0.1,0.1-0.2,0.2-0.3,0.3s-0.2,0.1-0.2,0l-5.4-4.9c-0.1-0.1-0.2-0.3-0.2-0.5s0-0.5,0.2-0.8
		c0.1-0.4,0.3-0.6,0.4-0.7C7.3,34,7.5,34,7.7,34l7.4-0.1c0.1,0,0.1,0.1,0.2,0.2c0.1,0.1,0.1,0.3,0.1,0.4c0,0.2,0,0.3-0.1,0.5
		c-0.2,0.4-0.6,0.7-1.2,0.6h-1.3l-1,2.6l1,0.9c0.4,0.4,0.6,0.8,0.4,1.2C13.1,40.5,13,40.7,12.9,40.8z M11.4,35.5l-3,0l2.2,2
		L11.4,35.5z"/>
	<path class="st0" d="M15.1,33.2l-5.2-3.3c-0.2-0.1-0.4-0.3-0.4-0.5c-0.1-0.2,0-0.4,0.1-0.6l0.1-0.2c0.1-0.2,0.2-0.3,0.4-0.4
		s0.3-0.1,0.5-0.1l5.7-0.4l-3.7-2.3c-0.5-0.3-0.5-0.6-0.3-1.1l0.1-0.1c0.3-0.4,0.6-0.5,1.1-0.2l5.2,3.3c0.2,0.1,0.4,0.3,0.4,0.5
		s0,0.4-0.1,0.6L19,28.5c-0.1,0.2-0.2,0.3-0.3,0.4C18.5,29,18.4,29,18.2,29l-5.9,0.4l3.8,2.4c0.5,0.3,0.5,0.6,0.3,1.1L16.2,33
		C15.9,33.4,15.6,33.5,15.1,33.2z"/>
	<path class="st0" d="M15,22.3c-0.4-0.3-0.5-0.7-0.1-1.1L15,21c0.3-0.4,0.7-0.4,1.1-0.1l4.8,4c0.4,0.3,0.4,0.7,0.1,1.1l-0.2,0.2
		c-0.2,0.2-0.3,0.3-0.5,0.3c-0.2,0-0.4-0.1-0.6-0.2L15,22.3z"/>
	<path class="st0" d="M19.7,18.3l-1.3,1.2c-0.2,0.2-0.4,0.3-0.6,0.3c-0.2,0-0.4-0.1-0.5-0.3l0,0c-0.2-0.2-0.2-0.4-0.2-0.5
		c0-0.2,0.1-0.4,0.3-0.5l3.8-3.6c0.4-0.4,0.8-0.4,1.1,0l0,0c0.3,0.4,0.3,0.7-0.1,1.1L21,17.1l3.7,4c0.2,0.2,0.3,0.4,0.3,0.6
		c0,0.2-0.1,0.4-0.3,0.5l-0.2,0.2c-0.4,0.3-0.7,0.3-1.1-0.1L19.7,18.3z"/>
	<path class="st0" d="M26.8,20.1c-0.2,0-0.3,0-0.4,0s-0.2-0.1-0.2-0.1l-1.6-7.2c-0.1-0.2,0-0.4,0.1-0.5s0.3-0.4,0.6-0.6
		c0.3-0.2,0.6-0.3,0.7-0.3c0.2,0,0.4,0,0.5,0.1l6.1,4.2c0,0,0.1,0.1,0,0.2c0,0.1-0.1,0.3-0.2,0.4c-0.1,0.1-0.2,0.3-0.3,0.4
		c-0.4,0.3-0.8,0.2-1.3-0.1l-1.1-0.7l-2.3,1.6l0.3,1.3c0.1,0.6,0,1-0.3,1.2C27.1,20.1,27,20.1,26.8,20.1z M28.6,15l-2.4-1.8l0.7,2.9
		L28.6,15z"/>
	<path class="st0" d="M33.4,15.7c-0.2-0.1-0.3-0.3-0.5-0.6l-2.3-5.4c-0.1-0.3-0.1-0.5-0.1-0.8c0.1-0.2,0.3-0.4,0.5-0.5l2.1-0.9
		c0.9-0.4,1.7-0.5,2.3-0.3s1.1,0.6,1.4,1.3c0.2,0.5,0.3,1,0.2,1.5c-0.1,0.5-0.4,0.9-0.8,1.2c-0.1,0.1-0.2,0.2-0.3,0.2l2.9,1.5
		c0,0,0,0.1,0,0.2c0,0.1-0.1,0.3-0.2,0.4c-0.1,0.1-0.3,0.3-0.5,0.4C37.9,14,37.7,14,37.5,14c-0.2,0-0.4-0.1-0.7-0.3l-2.4-1.3
		l-0.6,0.2l0.8,1.9c0.1,0.2,0.1,0.4,0.1,0.6c-0.1,0.2-0.2,0.3-0.4,0.4L34,15.7C33.8,15.8,33.6,15.8,33.4,15.7z M34.5,11
		c0.4-0.2,0.7-0.4,0.8-0.7c0.1-0.3,0.1-0.6,0-0.9c-0.3-0.7-0.9-0.9-1.8-0.5l-1.2,0.5l0.9,2.1L34.5,11z"/>
	<path class="st0" d="M38.2,6.5c-0.1-0.5,0-0.8,0.5-1l0.2-0.1c0.5-0.1,0.8,0,1,0.6l1.7,6c0.1,0.5,0,0.8-0.5,1L40.9,13
		c-0.2,0.1-0.4,0.1-0.6,0c-0.2-0.1-0.3-0.3-0.4-0.5L38.2,6.5z"/>
	<path class="st0" d="M43.1,12.3c-0.2,0-0.3-0.1-0.4-0.2c-0.1-0.1-0.2-0.1-0.1-0.2l1.6-7.2c0-0.2,0.1-0.3,0.3-0.4
		c0.2-0.1,0.4-0.2,0.8-0.3S45.9,4,46,4c0.2,0.1,0.3,0.2,0.4,0.3l3.7,6.4c0,0,0,0.1-0.1,0.2c-0.1,0.1-0.2,0.2-0.3,0.3
		c-0.1,0.1-0.3,0.1-0.5,0.2c-0.5,0.1-0.8-0.2-1.1-0.7l-0.6-1.1L44.7,10l-0.3,1.3c-0.1,0.6-0.4,0.9-0.8,0.9
		C43.4,12.3,43.2,12.3,43.1,12.3z M46.9,8.4l-1.5-2.6l-0.6,2.9L46.9,8.4z"/>
</g>
<circle class="st0" cx="58.7" cy="7.3" r="1.1"/>
</svg>
